<svg xmlns="http://www.w3.org/2000/svg" width="453" height="340" viewBox="0 0 453 340" version="1.1"><path d="M 0 170.002 L 0 340.004 226.750 339.752 L 453.500 339.500 453.753 169.750 L 454.006 0 227.003 0 L 0 0 0 170.002 M 0.489 170.500 C 0.489 264, 0.606 302.398, 0.750 255.829 C 0.894 209.260, 0.894 132.760, 0.750 85.829 C 0.606 38.898, 0.489 77, 0.489 170.500 M 173.361 90.796 C 171.787 91.603, 170.391 92.351, 170.257 92.458 C 169.553 93.022, 167.810 104.456, 167.445 110.903 C 167.215 114.975, 166.799 118.534, 166.522 118.811 C 166.244 119.089, 166.431 119.814, 166.936 120.423 C 167.441 121.032, 168.042 123.548, 168.272 126.015 C 168.542 128.918, 169.207 130.601, 170.158 130.788 C 171.321 131.015, 171.615 129.865, 171.564 125.288 C 171.493 118.829, 172.742 102.013, 173.613 97.707 C 174.154 95.033, 174.388 94.930, 179.107 95.308 C 181.819 95.526, 184.329 95.995, 184.685 96.352 C 185.042 96.708, 186.958 97, 188.944 97 C 190.930 97, 193.556 97.701, 194.779 98.558 C 196.003 99.415, 197.456 99.836, 198.009 99.495 C 198.562 99.153, 199.284 99.577, 199.614 100.437 C 199.944 101.296, 201.314 102, 202.659 102 C 205.084 102, 213.193 105.810, 213.833 107.250 C 214.017 107.662, 215.003 108, 216.024 108 C 218.156 108, 219.790 109.939, 217.809 110.118 C 217.089 110.184, 216.116 110.168, 215.647 110.084 C 214.505 109.879, 206.282 114.735, 205.427 116.119 C 204.966 116.864, 205.668 117.015, 207.625 116.590 C 209.206 116.247, 211.514 115.774, 212.754 115.540 C 213.993 115.305, 215.394 114.875, 215.866 114.583 C 218.677 112.846, 243.869 111.932, 252 113.272 C 255.025 113.770, 258.976 114.123, 260.780 114.056 C 262.585 113.988, 266.185 114.921, 268.780 116.128 C 273.163 118.165, 274.357 118.455, 277 118.125 C 278.895 117.888, 277.994 115.042, 275.509 113.414 C 272.347 111.342, 272.982 110.348, 278.005 109.499 C 280.202 109.128, 282 108.414, 282 107.912 C 282 107.410, 282.792 107, 283.759 107 C 284.727 107, 286.081 106.100, 286.768 105 C 287.455 103.900, 288.887 103, 289.949 103 C 291.012 103, 292.183 102.514, 292.550 101.919 C 292.918 101.324, 294.267 101.101, 295.548 101.423 C 296.829 101.744, 298.157 101.556, 298.498 101.004 C 298.839 100.452, 300.666 100, 302.559 100 C 305.568 100, 306 100.316, 306 102.514 C 306 103.896, 306.450 105.921, 307 107.014 C 307.550 108.106, 308.450 109.894, 309 110.986 C 309.550 112.079, 310 113.643, 310 114.462 C 310 115.281, 310.898 117.425, 311.996 119.226 C 313.094 121.027, 313.994 124.213, 313.996 126.307 C 314 130.041, 313.958 130.084, 311.777 128.557 C 306.787 125.061, 306.851 126.834, 312 134.758 C 314.200 138.144, 316 141.328, 316 141.835 C 316 142.341, 316.652 143.297, 317.450 143.958 C 320.471 146.465, 323.557 154.609, 327.338 170.053 C 329.169 177.528, 329.597 181.747, 329.389 190.263 C 329.032 204.895, 329.003 204.959, 322.683 205.185 C 312.729 205.539, 306.498 206.509, 301.602 208.465 C 299.896 209.147, 297.648 210.007, 296.607 210.376 C 293.422 211.505, 295.391 212.007, 299.056 211 C 303.799 209.697, 315.414 207.911, 321.806 207.502 C 325.575 207.261, 326.968 207.502, 326.613 208.332 C 326.338 208.974, 325.575 211.449, 324.918 213.830 C 323.880 217.587, 323.443 218.070, 321.611 217.479 C 314.679 215.241, 297.866 214.734, 295.896 216.704 C 295.090 217.510, 296.375 217.783, 300.646 217.715 C 303.866 217.664, 308.341 217.943, 310.590 218.335 C 312.840 218.728, 316.309 219.110, 318.300 219.185 C 320.617 219.272, 321.685 219.713, 321.268 220.411 C 317.515 226.684, 309.926 236, 308.569 236 C 308.182 236, 306.392 237.125, 304.589 238.500 C 302.786 239.875, 300.666 241, 299.878 241 C 299.090 241, 297.549 241.628, 296.453 242.395 C 295.358 243.162, 291.883 244.390, 288.731 245.122 C 282.911 246.475, 281.799 247.758, 284.500 250 C 285.325 250.685, 286 251.765, 286 252.400 C 286 253.036, 286.900 254.326, 288 255.268 C 289.100 256.210, 290 257.435, 290 257.990 C 290 258.639, 283.118 258.959, 270.750 258.884 C 260.163 258.820, 252.400 258.543, 253.500 258.268 C 254.600 257.993, 255.725 257.483, 256 257.134 C 256.275 256.785, 257.850 255.808, 259.500 254.962 C 262.926 253.205, 263.052 251.451, 259.740 251.603 C 256.340 251.760, 249.724 254.408, 246.869 256.754 C 245.490 257.888, 244.981 257.838, 243.577 256.435 C 241.453 254.310, 241.951 245.906, 244.344 243.514 C 245.255 242.603, 246 241.472, 246 241.002 C 246 239.693, 251.438 237.271, 256.173 236.471 L 260.415 235.754 258.097 233.877 C 255.250 231.572, 254.215 231.547, 249.947 233.676 C 245.452 235.919, 241 239.979, 241 241.837 C 241 242.665, 240.245 244.177, 239.323 245.196 C 238.251 246.380, 237.619 248.859, 237.573 252.059 L 237.500 257.069 229.084 256.785 L 220.669 256.500 212.935 227.524 C 205.522 199.747, 205.279 198.493, 207.071 197.237 C 208.100 196.517, 209.475 194.145, 210.128 191.967 C 211.109 188.693, 211.061 187.701, 209.851 186.253 C 209.046 185.289, 207.859 183.262, 207.215 181.750 C 206.570 180.238, 205.471 178.943, 204.771 178.872 C 203.443 178.739, 201.634 178.425, 196.327 177.405 C 193.440 176.850, 192.922 177.163, 190.577 180.878 C 189.160 183.123, 188 186.094, 188 187.480 L 188 190 173.750 189.978 C 161.147 189.958, 159.211 189.729, 157 188 C 155.625 186.924, 153.499 186.034, 152.275 186.022 C 150.314 186.003, 150.120 185.615, 150.637 182.750 C 150.960 180.963, 151.810 177.687, 152.526 175.470 C 153.241 173.254, 154.147 169.734, 154.538 167.649 C 155.324 163.461, 159.369 154.508, 160.904 153.559 C 161.442 153.227, 162.901 150.915, 164.146 148.422 C 165.391 145.928, 168.161 142.001, 170.302 139.694 C 176.721 132.776, 180.244 128, 178.928 128 C 177.435 128, 170.845 132.824, 169.644 134.795 C 169.173 135.568, 167.894 136.943, 166.801 137.850 C 159.098 144.245, 146.800 171.224, 146.800 181.728 L 146.800 185 138.150 185.058 C 127.442 185.129, 121.807 186.078, 121.196 187.913 C 120.857 188.929, 121.240 189.122, 122.577 188.609 C 125.044 187.662, 142.905 186.835, 145.193 187.561 C 151.220 189.474, 143.966 190, 111.559 190 C 91.244 190, 75.877 190.390, 75.553 190.914 C 74.845 192.059, 76.391 198.768, 85.069 232.220 C 88.881 246.916, 92 259.615, 92 260.440 C 92 261.680, 89.803 261.989, 79.332 262.220 C 70.292 262.420, 66.545 262.858, 66.248 263.750 C 65.929 264.710, 69.095 265, 79.917 265 L 94 265 94 272 L 94 279 159.450 279 L 224.899 279 234.178 273.151 C 240.648 269.072, 243.628 266.575, 244.023 264.901 L 244.588 262.500 275.044 261.963 C 291.795 261.668, 305.613 261.330, 305.750 261.213 C 307.194 259.982, 304.914 259.043, 299.885 258.798 L 293.769 258.500 292.207 254.500 C 291.348 252.300, 290.050 250.140, 289.323 249.700 C 286.864 248.214, 287.978 247.270, 294.250 245.524 C 297.688 244.568, 300.950 243.435, 301.500 243.008 C 302.050 242.581, 304.075 241.894, 306 241.481 C 307.925 241.069, 310.088 239.892, 310.807 238.866 C 311.525 237.840, 312.573 237, 313.135 237 C 314.434 237, 321.456 229.613, 324.640 224.896 C 326.662 221.900, 327.531 221.374, 329.787 221.780 C 331.279 222.049, 332.981 222.645, 333.568 223.106 C 334.156 223.566, 337.081 224.435, 340.068 225.037 C 343.056 225.638, 346.945 226.869, 348.711 227.771 C 350.476 228.674, 352.228 229.105, 352.603 228.730 C 353.607 227.727, 351.276 225.302, 348.719 224.691 C 343.071 223.340, 334.241 220.814, 331.750 219.837 C 329.152 218.817, 327.858 216, 329.988 216 C 330.532 216, 331.269 214.172, 331.626 211.937 L 332.276 207.874 339.579 208.341 C 343.595 208.598, 347.327 209.084, 347.872 209.421 C 348.937 210.079, 350.549 208.215, 349.672 207.339 C 349.159 206.826, 346.568 206.425, 338.678 205.638 C 333.868 205.158, 332.192 203.678, 333.997 201.504 C 334.718 200.635, 335.424 197.803, 335.565 195.212 C 335.846 190.073, 333.331 169.718, 332.018 166.500 C 331.569 165.400, 330.627 162.925, 329.924 161 C 327.605 154.650, 324.010 147.124, 322.997 146.498 C 322.449 146.159, 322 145.114, 322 144.176 C 322 143.238, 321.068 140.731, 319.928 138.605 C 318.348 135.656, 317.754 132.342, 317.421 124.620 C 317.022 115.374, 316.508 112.924, 313.883 107.764 C 313.397 106.809, 313 105.288, 313 104.384 C 313 103.480, 311.123 100.804, 308.830 98.437 C 304.762 94.240, 304.535 94.148, 299.580 94.696 C 296.786 95.005, 294.072 95.650, 293.550 96.129 C 293.027 96.608, 291.776 97, 290.769 97 C 289.761 97, 288.678 97.675, 288.362 98.500 C 288.045 99.325, 286.794 100, 285.581 100 C 282.860 100, 275.801 103.330, 274.050 105.440 C 273.338 106.298, 272.135 107, 271.378 107 C 270.620 107, 269.993 107.338, 269.985 107.750 C 269.929 110.472, 268.282 110.989, 263.886 109.666 C 261.419 108.924, 256.143 108.398, 252.161 108.499 C 248.179 108.599, 244.725 108.364, 244.486 107.977 C 244.247 107.590, 241.452 107.480, 238.275 107.732 C 228.414 108.515, 226.337 108.238, 222.124 105.578 C 219.878 104.160, 217.411 103, 216.642 103 C 215.874 103, 214.685 102.325, 214 101.500 C 213.315 100.675, 212.023 99.998, 211.128 99.996 C 210.232 99.994, 208.027 99.094, 206.226 97.996 C 204.425 96.898, 202.089 96, 201.035 96 C 199.981 96, 198.840 95.550, 198.500 95 C 198.160 94.450, 196.874 94, 195.641 94 C 194.408 94, 192.872 93.472, 192.227 92.827 C 191.582 92.182, 187.717 91.131, 183.638 90.491 C 177.430 89.517, 175.756 89.567, 173.361 90.796 M 353.437 135.787 C 350.052 137.561, 346.811 140.609, 344.621 144.080 C 341.753 148.625, 344.039 148.007, 348.884 142.926 C 352.534 139.100, 354.273 138, 356.675 138 C 362.767 138, 360.966 145.487, 354.250 148.081 C 351.709 149.063, 351.319 150.525, 353.386 151.318 C 355.301 152.053, 361.724 145.949, 362.565 142.595 C 364.052 136.673, 358.974 132.886, 353.437 135.787 M 355 160.687 L 352.500 161.971 355 162.104 C 356.375 162.177, 358.002 162.178, 358.617 162.105 C 359.231 162.033, 360.292 162.647, 360.975 163.470 C 362.011 164.718, 361.773 165.136, 359.544 165.983 C 358.073 166.543, 355.999 167, 354.935 167 C 353.871 167, 353 167.450, 353 168 C 353 168.550, 355.466 169, 358.481 169 C 363.516 169, 364.014 168.794, 364.599 166.460 C 365.816 161.614, 360.004 158.119, 355 160.687 M 192 180.500 C 192 182.393, 193.085 182.403, 195.559 180.532 C 197.418 179.126, 197.384 179.062, 194.750 179.032 C 192.958 179.011, 192 179.523, 192 180.500 M 258.201 184.803 C 255.092 188.879, 254.579 194.977, 256.970 199.444 C 258.225 201.788, 258.911 202.114, 261.658 201.668 C 263.764 201.326, 265.286 201.639, 266.061 202.573 C 268.076 205.001, 271.899 204.231, 275.117 200.750 C 277.576 198.089, 278.019 196.911, 277.560 194.250 C 277.252 192.463, 276.724 189.414, 276.388 187.475 C 275.633 183.131, 273.227 181.709, 266.201 181.454 C 261.215 181.274, 260.742 181.471, 258.201 184.803 M 258.583 186.866 C 258.152 187.563, 258.070 188.403, 258.400 188.733 C 259.295 189.628, 260.271 188.312, 259.787 186.862 C 259.449 185.846, 259.213 185.846, 258.583 186.866 M 203 188 C 203 188.550, 203.423 189, 203.941 189 C 204.459 189, 205.160 188.550, 205.500 188 C 205.840 187.450, 205.416 187, 204.559 187 C 203.702 187, 203 187.450, 203 188 M 151 189.173 C 151 189.628, 152.350 190, 154 190 C 155.650 190, 157 189.826, 157 189.613 C 157 189.401, 155.650 189.029, 154 188.787 C 152.350 188.545, 151 188.718, 151 189.173 M 205.750 191.083 C 203.709 193.319, 203.566 194, 205.140 194 C 205.767 194, 206.877 193.213, 207.608 192.250 C 210.248 188.773, 208.730 187.820, 205.750 191.083 M 225.558 192.775 C 225.251 193.082, 225 194.110, 225 195.060 C 225 196.009, 224.325 197.045, 223.500 197.362 C 221.753 198.032, 221.459 201, 223.140 201 C 223.767 201, 224.817 200.265, 225.473 199.368 C 226.575 197.861, 226.864 197.865, 229.241 199.422 C 230.841 200.470, 232.050 200.729, 232.435 200.105 C 232.777 199.552, 232.122 198.600, 230.980 197.989 C 229.601 197.252, 229.097 196.268, 229.480 195.063 C 229.879 193.807, 229.450 193.089, 228.086 192.733 C 227.002 192.449, 225.865 192.469, 225.558 192.775 M 275 194.941 C 275 196.009, 274.550 197.160, 274 197.500 C 273.450 197.840, 273.015 198.654, 273.033 199.309 C 273.080 200.965, 277 196.103, 277 194.389 C 277 193.625, 276.550 193, 276 193 C 275.450 193, 275 193.873, 275 194.941 M 88.460 227.250 C 93.019 244.988, 97.172 261.075, 97.688 263 L 98.627 266.500 158.722 266.758 L 218.816 267.016 215.401 254.258 C 213.522 247.241, 209.212 231.037, 205.823 218.250 L 199.660 195 139.916 195 L 80.172 195 88.460 227.250 M 259.500 199 C 259.840 199.550, 260.793 200, 261.618 200 C 262.443 200, 262.840 199.550, 262.500 199 C 262.160 198.450, 261.207 198, 260.382 198 C 259.557 198, 259.160 198.450, 259.500 199 M 231.639 260.694 C 231.258 261.076, 229.158 261.282, 226.973 261.153 C 223.564 260.952, 223 261.209, 223 262.959 C 223 264.082, 223.392 265, 223.872 265 C 225.554 265, 235.483 260.115, 233.917 260.058 C 233.046 260.026, 232.021 260.312, 231.639 260.694 M 224 263 C 224 264.253, 225.061 264.253, 227 263 C 228.213 262.216, 228.069 262.028, 226.250 262.015 C 225.012 262.007, 224 262.450, 224 263 M 233.045 265.965 C 226.857 269.092, 225.567 270.163, 225.455 272.269 L 225.319 274.807 231.165 271.154 C 239.397 266.009, 241.319 264.444, 240.882 263.245 C 240.664 262.646, 237.310 263.810, 233.045 265.965 M 234 266.684 C 231.525 268.047, 229.349 269.579, 229.165 270.087 C 228.980 270.596, 228.465 270.787, 228.019 270.512 C 227.574 270.237, 226.937 270.721, 226.605 271.587 C 226.140 272.800, 226.864 272.640, 229.750 270.895 C 240.370 264.472, 243.313 261.557, 234 266.684 M 97 273.500 C 97 274.817, 104.593 275, 159.333 275 C 214.074 275, 221.667 274.817, 221.667 273.500 C 221.667 272.183, 214.074 272, 159.333 272 C 104.593 272, 97 272.183, 97 273.500 M 128.250 273.749 C 145.162 273.903, 172.837 273.903, 189.750 273.749 C 206.662 273.596, 192.825 273.470, 159 273.470 C 125.175 273.470, 111.337 273.596, 128.250 273.749" stroke="none" fill="#f8f8f8" fill-rule="evenodd"/><path d="M 173.361 90.796 C 171.787 91.603, 170.391 92.351, 170.257 92.458 C 169.553 93.022, 167.810 104.456, 167.445 110.903 C 167.215 114.975, 166.799 118.534, 166.522 118.811 C 166.244 119.089, 166.431 119.814, 166.936 120.423 C 167.441 121.032, 168.042 123.548, 168.272 126.015 C 168.542 128.918, 169.207 130.601, 170.158 130.788 C 171.321 131.015, 171.615 129.865, 171.564 125.288 C 171.493 118.829, 172.742 102.013, 173.613 97.707 C 174.154 95.033, 174.388 94.930, 179.107 95.308 C 181.819 95.526, 184.329 95.995, 184.685 96.352 C 185.042 96.708, 186.958 97, 188.944 97 C 190.930 97, 193.556 97.701, 194.779 98.558 C 196.003 99.415, 197.456 99.836, 198.009 99.495 C 198.562 99.153, 199.284 99.577, 199.614 100.437 C 199.944 101.296, 201.314 102, 202.659 102 C 205.084 102, 213.193 105.810, 213.833 107.250 C 214.017 107.662, 215.003 108, 216.024 108 C 218.156 108, 219.790 109.939, 217.809 110.118 C 217.089 110.184, 216.116 110.168, 215.647 110.084 C 214.505 109.879, 206.282 114.735, 205.427 116.119 C 204.966 116.864, 205.668 117.015, 207.625 116.590 C 209.206 116.247, 211.514 115.774, 212.754 115.540 C 213.993 115.305, 215.394 114.875, 215.866 114.583 C 218.677 112.846, 243.869 111.932, 252 113.272 C 255.025 113.770, 258.976 114.123, 260.780 114.056 C 262.585 113.988, 266.185 114.921, 268.780 116.128 C 273.163 118.165, 274.357 118.455, 277 118.125 C 278.895 117.888, 277.994 115.042, 275.509 113.414 C 272.347 111.342, 272.982 110.348, 278.005 109.499 C 280.202 109.128, 282 108.414, 282 107.912 C 282 107.410, 282.792 107, 283.759 107 C 284.727 107, 286.081 106.100, 286.768 105 C 287.455 103.900, 288.887 103, 289.949 103 C 291.012 103, 292.183 102.514, 292.550 101.919 C 292.918 101.324, 294.267 101.101, 295.548 101.423 C 296.829 101.744, 298.157 101.556, 298.498 101.004 C 298.839 100.452, 300.666 100, 302.559 100 C 305.568 100, 306 100.316, 306 102.514 C 306 103.896, 306.450 105.921, 307 107.014 C 307.550 108.106, 308.450 109.894, 309 110.986 C 309.550 112.079, 310 113.643, 310 114.462 C 310 115.281, 310.898 117.425, 311.996 119.226 C 313.094 121.027, 313.994 124.213, 313.996 126.307 C 314 130.041, 313.958 130.084, 311.777 128.557 C 306.787 125.061, 306.851 126.834, 312 134.758 C 314.200 138.144, 316 141.328, 316 141.835 C 316 142.341, 316.652 143.297, 317.450 143.958 C 320.471 146.465, 323.557 154.609, 327.338 170.053 C 329.169 177.528, 329.597 181.747, 329.389 190.263 C 329.032 204.895, 329.003 204.959, 322.683 205.185 C 312.729 205.539, 306.498 206.509, 301.602 208.465 C 299.896 209.147, 297.648 210.007, 296.607 210.376 C 293.422 211.505, 295.391 212.007, 299.056 211 C 303.799 209.697, 315.414 207.911, 321.806 207.502 C 325.575 207.261, 326.968 207.502, 326.613 208.332 C 326.338 208.974, 325.575 211.449, 324.918 213.830 C 323.880 217.587, 323.443 218.070, 321.611 217.479 C 314.679 215.241, 297.866 214.734, 295.896 216.704 C 295.090 217.510, 296.375 217.783, 300.646 217.715 C 303.866 217.664, 308.341 217.943, 310.590 218.335 C 312.840 218.728, 316.309 219.110, 318.300 219.185 C 320.617 219.272, 321.685 219.713, 321.268 220.411 C 317.515 226.684, 309.926 236, 308.569 236 C 308.182 236, 306.392 237.125, 304.589 238.500 C 302.786 239.875, 300.666 241, 299.878 241 C 299.090 241, 297.549 241.628, 296.453 242.395 C 295.358 243.162, 291.883 244.390, 288.731 245.122 C 282.911 246.475, 281.799 247.758, 284.500 250 C 285.325 250.685, 286 251.765, 286 252.400 C 286 253.036, 286.900 254.326, 288 255.268 C 289.100 256.210, 290 257.435, 290 257.990 C 290 258.639, 283.118 258.959, 270.750 258.884 C 260.163 258.820, 252.400 258.543, 253.500 258.268 C 254.600 257.993, 255.725 257.483, 256 257.134 C 256.275 256.785, 257.850 255.808, 259.500 254.962 C 262.926 253.205, 263.052 251.451, 259.740 251.603 C 256.340 251.760, 249.724 254.408, 246.869 256.754 C 245.490 257.888, 244.981 257.838, 243.577 256.435 C 241.453 254.310, 241.951 245.906, 244.344 243.514 C 245.255 242.603, 246 241.472, 246 241.002 C 246 239.693, 251.438 237.271, 256.173 236.471 L 260.415 235.754 258.097 233.877 C 255.250 231.572, 254.215 231.547, 249.947 233.676 C 245.452 235.919, 241 239.979, 241 241.837 C 241 242.665, 240.245 244.177, 239.323 245.196 C 238.251 246.380, 237.619 248.859, 237.573 252.059 L 237.500 257.069 229.084 256.785 L 220.669 256.500 212.935 227.524 C 205.522 199.747, 205.279 198.493, 207.071 197.237 C 208.100 196.517, 209.475 194.145, 210.128 191.967 C 211.109 188.693, 211.061 187.701, 209.851 186.253 C 209.046 185.289, 207.859 183.262, 207.215 181.750 C 206.570 180.238, 205.471 178.943, 204.771 178.872 C 203.443 178.739, 201.634 178.425, 196.327 177.405 C 193.440 176.850, 192.922 177.163, 190.577 180.878 C 189.160 183.123, 188 186.094, 188 187.480 L 188 190 173.750 189.978 C 161.147 189.958, 159.211 189.729, 157 188 C 155.625 186.924, 153.499 186.034, 152.275 186.022 C 150.314 186.003, 150.120 185.615, 150.637 182.750 C 150.960 180.963, 151.810 177.687, 152.526 175.470 C 153.241 173.254, 154.147 169.734, 154.538 167.649 C 155.324 163.461, 159.369 154.508, 160.904 153.559 C 161.442 153.227, 162.901 150.915, 164.146 148.422 C 165.391 145.928, 168.161 142.001, 170.302 139.694 C 176.721 132.776, 180.244 128, 178.928 128 C 177.435 128, 170.845 132.824, 169.644 134.795 C 169.173 135.568, 167.894 136.943, 166.801 137.850 C 159.098 144.245, 146.800 171.224, 146.800 181.728 L 146.800 185 138.150 185.058 C 127.442 185.129, 121.807 186.078, 121.196 187.913 C 120.857 188.929, 121.240 189.122, 122.577 188.609 C 125.044 187.662, 142.905 186.835, 145.193 187.561 C 151.220 189.474, 143.966 190, 111.559 190 C 91.244 190, 75.877 190.390, 75.553 190.914 C 74.845 192.059, 76.391 198.768, 85.069 232.220 C 88.881 246.916, 92 259.615, 92 260.440 C 92 261.680, 89.803 261.989, 79.332 262.220 C 70.292 262.420, 66.545 262.858, 66.248 263.750 C 65.929 264.710, 69.095 265, 79.917 265 L 94 265 94 272 L 94 279 159.450 279 L 224.899 279 234.178 273.151 C 240.648 269.072, 243.628 266.575, 244.023 264.901 L 244.588 262.500 275.044 261.963 C 291.795 261.668, 305.613 261.330, 305.750 261.213 C 307.194 259.982, 304.914 259.043, 299.885 258.798 L 293.769 258.500 292.207 254.500 C 291.348 252.300, 290.050 250.140, 289.323 249.700 C 286.864 248.214, 287.978 247.270, 294.250 245.524 C 297.688 244.568, 300.950 243.435, 301.500 243.008 C 302.050 242.581, 304.075 241.894, 306 241.481 C 307.925 241.069, 310.088 239.892, 310.807 238.866 C 311.525 237.840, 312.573 237, 313.135 237 C 314.434 237, 321.456 229.613, 324.640 224.896 C 326.662 221.900, 327.531 221.374, 329.787 221.780 C 331.279 222.049, 332.981 222.645, 333.568 223.106 C 334.156 223.566, 337.081 224.435, 340.068 225.037 C 343.056 225.638, 346.945 226.869, 348.711 227.771 C 350.476 228.674, 352.228 229.105, 352.603 228.730 C 353.607 227.727, 351.276 225.302, 348.719 224.691 C 343.071 223.340, 334.241 220.814, 331.750 219.837 C 329.152 218.817, 327.858 216, 329.988 216 C 330.532 216, 331.269 214.172, 331.626 211.937 L 332.276 207.874 339.579 208.341 C 343.595 208.598, 347.327 209.084, 347.872 209.421 C 348.937 210.079, 350.549 208.215, 349.672 207.339 C 349.159 206.826, 346.568 206.425, 338.678 205.638 C 333.868 205.158, 332.192 203.678, 333.997 201.504 C 334.718 200.635, 335.424 197.803, 335.565 195.212 C 335.846 190.073, 333.331 169.718, 332.018 166.500 C 331.569 165.400, 330.627 162.925, 329.924 161 C 327.605 154.650, 324.010 147.124, 322.997 146.498 C 322.449 146.159, 322 145.114, 322 144.176 C 322 143.238, 321.068 140.731, 319.928 138.605 C 318.348 135.656, 317.754 132.342, 317.421 124.620 C 317.022 115.374, 316.508 112.924, 313.883 107.764 C 313.397 106.809, 313 105.288, 313 104.384 C 313 103.480, 311.123 100.804, 308.830 98.437 C 304.762 94.240, 304.535 94.148, 299.580 94.696 C 296.786 95.005, 294.072 95.650, 293.550 96.129 C 293.027 96.608, 291.776 97, 290.769 97 C 289.761 97, 288.678 97.675, 288.362 98.500 C 288.045 99.325, 286.794 100, 285.581 100 C 282.860 100, 275.801 103.330, 274.050 105.440 C 273.338 106.298, 272.135 107, 271.378 107 C 270.620 107, 269.993 107.338, 269.985 107.750 C 269.929 110.472, 268.282 110.989, 263.886 109.666 C 261.419 108.924, 256.143 108.398, 252.161 108.499 C 248.179 108.599, 244.725 108.364, 244.486 107.977 C 244.247 107.590, 241.452 107.480, 238.275 107.732 C 228.414 108.515, 226.337 108.238, 222.124 105.578 C 219.878 104.160, 217.411 103, 216.642 103 C 215.874 103, 214.685 102.325, 214 101.500 C 213.315 100.675, 212.023 99.998, 211.128 99.996 C 210.232 99.994, 208.027 99.094, 206.226 97.996 C 204.425 96.898, 202.089 96, 201.035 96 C 199.981 96, 198.840 95.550, 198.500 95 C 198.160 94.450, 196.874 94, 195.641 94 C 194.408 94, 192.872 93.472, 192.227 92.827 C 191.582 92.182, 187.717 91.131, 183.638 90.491 C 177.430 89.517, 175.756 89.567, 173.361 90.796 M 353.437 135.787 C 350.052 137.561, 346.811 140.609, 344.621 144.080 C 341.753 148.625, 344.039 148.007, 348.884 142.926 C 352.534 139.100, 354.273 138, 356.675 138 C 362.767 138, 360.966 145.487, 354.250 148.081 C 351.709 149.063, 351.319 150.525, 353.386 151.318 C 355.301 152.053, 361.724 145.949, 362.565 142.595 C 364.052 136.673, 358.974 132.886, 353.437 135.787 M 355 160.687 L 352.500 161.971 355 162.104 C 356.375 162.177, 358.002 162.178, 358.617 162.105 C 359.231 162.033, 360.292 162.647, 360.975 163.470 C 362.011 164.718, 361.773 165.136, 359.544 165.983 C 358.073 166.543, 355.999 167, 354.935 167 C 353.871 167, 353 167.450, 353 168 C 353 168.550, 355.466 169, 358.481 169 C 363.516 169, 364.014 168.794, 364.599 166.460 C 365.816 161.614, 360.004 158.119, 355 160.687 M 192 180.500 C 192 182.393, 193.085 182.403, 195.559 180.532 C 197.418 179.126, 197.384 179.062, 194.750 179.032 C 192.958 179.011, 192 179.523, 192 180.500 M 258.201 184.803 C 255.092 188.879, 254.579 194.977, 256.970 199.444 C 258.225 201.788, 258.911 202.114, 261.658 201.668 C 263.764 201.326, 265.286 201.639, 266.061 202.573 C 268.076 205.001, 271.899 204.231, 275.117 200.750 C 277.576 198.089, 278.019 196.911, 277.560 194.250 C 277.252 192.463, 276.724 189.414, 276.388 187.475 C 275.633 183.131, 273.227 181.709, 266.201 181.454 C 261.215 181.274, 260.742 181.471, 258.201 184.803 M 258.583 186.866 C 258.152 187.563, 258.070 188.403, 258.400 188.733 C 259.295 189.628, 260.271 188.312, 259.787 186.862 C 259.449 185.846, 259.213 185.846, 258.583 186.866 M 203 188 C 203 188.550, 203.423 189, 203.941 189 C 204.459 189, 205.160 188.550, 205.500 188 C 205.840 187.450, 205.416 187, 204.559 187 C 203.702 187, 203 187.450, 203 188 M 151 189.173 C 151 189.628, 152.350 190, 154 190 C 155.650 190, 157 189.826, 157 189.613 C 157 189.401, 155.650 189.029, 154 188.787 C 152.350 188.545, 151 188.718, 151 189.173 M 205.750 191.083 C 203.709 193.319, 203.566 194, 205.140 194 C 205.767 194, 206.877 193.213, 207.608 192.250 C 210.248 188.773, 208.730 187.820, 205.750 191.083 M 225.558 192.775 C 225.251 193.082, 225 194.110, 225 195.060 C 225 196.009, 224.325 197.045, 223.500 197.362 C 221.753 198.032, 221.459 201, 223.140 201 C 223.767 201, 224.817 200.265, 225.473 199.368 C 226.575 197.861, 226.864 197.865, 229.241 199.422 C 230.841 200.470, 232.050 200.729, 232.435 200.105 C 232.777 199.552, 232.122 198.600, 230.980 197.989 C 229.601 197.252, 229.097 196.268, 229.480 195.063 C 229.879 193.807, 229.450 193.089, 228.086 192.733 C 227.002 192.449, 225.865 192.469, 225.558 192.775 M 275 194.941 C 275 196.009, 274.550 197.160, 274 197.500 C 273.450 197.840, 273.015 198.654, 273.033 199.309 C 273.080 200.965, 277 196.103, 277 194.389 C 277 193.625, 276.550 193, 276 193 C 275.450 193, 275 193.873, 275 194.941 M 88.460 227.250 C 93.019 244.988, 97.172 261.075, 97.688 263 L 98.627 266.500 158.722 266.758 L 218.816 267.016 215.401 254.258 C 213.522 247.241, 209.212 231.037, 205.823 218.250 L 199.660 195 139.916 195 L 80.172 195 88.460 227.250 M 259.500 199 C 259.840 199.550, 260.793 200, 261.618 200 C 262.443 200, 262.840 199.550, 262.500 199 C 262.160 198.450, 261.207 198, 260.382 198 C 259.557 198, 259.160 198.450, 259.500 199 M 231.639 260.694 C 231.258 261.076, 229.158 261.282, 226.973 261.153 C 223.564 260.952, 223 261.209, 223 262.959 C 223 264.082, 223.392 265, 223.872 265 C 225.554 265, 235.483 260.115, 233.917 260.058 C 233.046 260.026, 232.021 260.312, 231.639 260.694 M 224 263 C 224 264.253, 225.061 264.253, 227 263 C 228.213 262.216, 228.069 262.028, 226.250 262.015 C 225.012 262.007, 224 262.450, 224 263 M 233.045 265.965 C 226.857 269.092, 225.567 270.163, 225.455 272.269 L 225.319 274.807 231.165 271.154 C 239.397 266.009, 241.319 264.444, 240.882 263.245 C 240.664 262.646, 237.310 263.810, 233.045 265.965 M 234 266.684 C 231.525 268.047, 229.349 269.579, 229.165 270.087 C 228.980 270.596, 228.465 270.787, 228.019 270.512 C 227.574 270.237, 226.937 270.721, 226.605 271.587 C 226.140 272.800, 226.864 272.640, 229.750 270.895 C 240.370 264.472, 243.313 261.557, 234 266.684 M 97 273.500 C 97 274.817, 104.593 275, 159.333 275 C 214.074 275, 221.667 274.817, 221.667 273.500 C 221.667 272.183, 214.074 272, 159.333 272 C 104.593 272, 97 272.183, 97 273.500 M 128.250 273.749 C 145.162 273.903, 172.837 273.903, 189.750 273.749 C 206.662 273.596, 192.825 273.470, 159 273.470 C 125.175 273.470, 111.337 273.596, 128.250 273.749" stroke="none" fill="#1a1919" fill-rule="evenodd"/></svg>